<svg width="36" height="36" viewBox="0 0 36 36" fill="none" xmlns="http://www.w3.org/2000/svg">
<path d="M18 36C27.9411 36 36 27.9411 36 18C36 8.05888 27.9411 0 18 0C8.05888 0 0 8.05888 0 18C0 27.9411 8.05888 36 18 36Z" fill="url(#paint0_linear_1217_5973)"/>
<path d="M21.8258 7.99902H14.1858C10.7778 7.99902 8.00977 10.767 8.00977 14.175V21.815C8.00977 25.223 10.7778 27.991 14.1858 27.991H21.8258C25.2338 27.991 28.0018 25.223 28.0018 21.815V14.175C28.0018 10.767 25.2338 7.99902 21.8258 7.99902ZM25.7698 21.823C25.7698 23.999 24.0018 25.775 21.8178 25.775H14.1778C12.0018 25.775 10.2258 24.007 10.2258 21.823V14.183C10.2258 12.007 11.9938 10.231 14.1778 10.231H21.8178C23.9938 10.231 25.7698 11.999 25.7698 14.183V21.823Z" fill="white"/>
<path d="M18.0007 12.8857C15.1847 12.8857 12.8887 15.1817 12.8887 17.9977C12.8887 20.8137 15.1847 23.1097 18.0007 23.1097C20.8167 23.1097 23.1127 20.8137 23.1127 17.9977C23.1127 15.1817 20.8167 12.8857 18.0007 12.8857ZM18.0007 21.1017C16.2887 21.1017 14.8967 19.7097 14.8967 17.9977C14.8967 16.2857 16.2887 14.8937 18.0007 14.8937C19.7127 14.8937 21.1047 16.2857 21.1047 17.9977C21.1047 19.7097 19.7127 21.1017 18.0007 21.1017Z" fill="white"/>
<path d="M23.5023 13.4482C23.9733 13.3718 24.2932 12.9281 24.2168 12.4571C24.1405 11.9862 23.6968 11.6663 23.2258 11.7426C22.7548 11.819 22.4349 12.2627 22.5113 12.7336C22.5876 13.2046 23.0313 13.5245 23.5023 13.4482Z" fill="white"/>
<defs>
<linearGradient id="paint0_linear_1217_5973" x1="4.29432" y1="31.7057" x2="29.8743" y2="6.12568" gradientUnits="userSpaceOnUse">
<stop stop-color="#FEE411"/>
<stop offset="0.0518459" stop-color="#FEDB16"/>
<stop offset="0.1381" stop-color="#FEC125"/>
<stop offset="0.2481" stop-color="#FE983D"/>
<stop offset="0.3762" stop-color="#FE5F5E"/>
<stop offset="0.5" stop-color="#FE2181"/>
<stop offset="1" stop-color="#9000DC"/>
</linearGradient>
</defs>
</svg>
