<svg width="36" height="36" viewBox="0 0 36 36" fill="none" xmlns="http://www.w3.org/2000/svg">
<path d="M18 36C27.9411 36 36 27.9411 36 18C36 8.05887 27.9411 0 18 0C8.05887 0 0 8.05887 0 18C0 27.9411 8.05887 36 18 36Z" fill="#039BE5"/>
<path d="M8.23738 17.6132L25.5924 10.9217C26.3979 10.6307 27.1014 11.1182 26.8404 12.3362L26.8419 12.3347L23.8869 26.2562C23.6679 27.2432 23.0814 27.4832 22.2609 27.0182L17.7609 23.7017L15.5904 25.7927C15.3504 26.0327 15.1479 26.2352 14.6829 26.2352L15.0024 21.6557L23.3424 14.1212C23.7054 13.8017 23.2614 13.6217 22.7829 13.9397L12.4764 20.4287L8.03338 19.0427C7.06888 18.7367 7.04788 18.0782 8.23738 17.6132Z" fill="white"/>
</svg>
