<svg width="36" height="36" viewBox="0 0 36 36" fill="none" xmlns="http://www.w3.org/2000/svg">
<path d="M18.0045 0H17.9955C8.07075 0 0 8.073 0 18C0 21.9375 1.269 25.587 3.42675 28.5503L1.1835 35.2373L8.10225 33.0255C10.9485 34.911 14.3438 36 18.0045 36C27.9292 36 36 27.9247 36 18C36 8.07525 27.9292 0 18.0045 0Z" fill="#4CAF50"/>
<path d="M28.4773 25.4209C28.043 26.6471 26.3195 27.6641 24.9448 27.9611C24.0043 28.1614 22.7758 28.3211 18.6403 26.6066C13.3505 24.4151 9.94402 19.0399 9.67852 18.6911C9.42427 18.3424 7.54102 15.8449 7.54102 13.2619C7.54102 10.6789 8.85277 9.4211 9.38152 8.8811C9.81577 8.43785 10.5335 8.23535 11.222 8.23535C11.4448 8.23535 11.645 8.2466 11.825 8.2556C12.3538 8.2781 12.6193 8.3096 12.968 9.14435C13.4023 10.1906 14.4598 12.7736 14.5858 13.0391C14.714 13.3046 14.8423 13.6646 14.6623 14.0134C14.4935 14.3734 14.345 14.5331 14.0795 14.8391C13.814 15.1451 13.562 15.3791 13.2965 15.7076C13.0535 15.9934 12.779 16.2994 13.085 16.8281C13.391 17.3456 14.4485 19.0714 16.0055 20.4574C18.0148 22.2461 19.6438 22.8176 20.2265 23.0606C20.6608 23.2406 21.1783 23.1979 21.4955 22.8604C21.8983 22.4261 22.3955 21.7061 22.9018 20.9974C23.2618 20.4889 23.7163 20.4259 24.1933 20.6059C24.6793 20.7746 27.251 22.0459 27.7798 22.3091C28.3085 22.5746 28.6573 22.7006 28.7855 22.9234C28.9115 23.1461 28.9115 24.1924 28.4773 25.4209Z" fill="#FAFAFA"/>
</svg>
